<svg xmlns="http://www.w3.org/2000/svg" width="775" height="775" style="shape-rendering:geometricPrecision;text-rendering:geometricPrecision;image-rendering:optimizeQuality;fill-rule:evenodd;clip-rule:evenodd" viewBox="0 0 775px 775px">
  <path style="opacity:1" fill="#d8e1f1" d="M284.167 229.056c16.044-3.396 28.675 1.199 37.889 13.778 17.112 6.786 29.743 18.269 37.889 34.444A966.959 966.959 0 0 1 218.723 279l6.889-10.333a675.077 675.077 0 0 1 48.222-25.833 1698.321 1698.321 0 0 0 10.333-13.778Z"/>
  <path style="opacity:1" fill="#4470b6" d="M580.389 297.944c-14.222-13.037-29.15-13.612-44.778-1.722a323.688 323.688 0 0 0-46.5 29.278c-4.14 7.499-5.862 15.534-5.167 24.111a893.162 893.162 0 0 0-46.5 24.111 24.965 24.965 0 0 0-8.611-6.889 709.531 709.531 0 0 0-58.556 31c-4.791-3.944-9.383-3.944-13.778 0 2.973 4.223 2.973 8.818 0 13.778-4.678 3.878-9.272 3.878-13.778 0-2.966-8.305-7.557-15.193-13.778-20.667v-6.889c7.991-3.875 16.03-4.45 24.111-1.722A5141.419 5141.419 0 0 1 652.721 201.5c1.309-5.236 1.881-10.977 1.722-17.222a277.712 277.712 0 0 1 25.833-13.778c15.941 22.695 27.996 46.807 36.167 72.333a277.712 277.712 0 0 1-25.833 13.778l-8.611-10.333a4237.697 4237.697 0 0 1-101.611 51.667Z"/>
  <path style="opacity:1" fill="#f4f3f4" d="M359.944 656.167h-10.333a1719.012 1719.012 0 0 0-27.556-27.556c5.236-1.309 10.977-1.881 17.222-1.722-9.396-2.201-11.119-6.221-5.167-12.056 4.957 5.215 10.123 6.362 15.5 3.444-2.842-3.052-6.286-4.199-10.333-3.444.982-6.159-.165-11.901-3.444-17.222-2.053 4.188-2.628 8.78-1.722 13.778-1.319-1.915-3.041-3.062-5.167-3.444A281.328 281.328 0 0 1 341 566.612a231.894 231.894 0 0 0 5.167-44.778h-58.556c-9.31-5.546-19.644-8.99-31-10.333a173.866 173.866 0 0 0 34.444-1.722 176.659 176.659 0 0 0 22.389-43.056c39.553 4.705 59.647-13.664 60.278-55.111-6.407-1.967-12.149-1.967-17.222 0 2.973-4.96 2.973-9.555 0-13.778 4.395-3.944 8.987-3.944 13.778 0a709.531 709.531 0 0 1 58.556-31 24.965 24.965 0 0 1 8.611 6.889 893.162 893.162 0 0 1 46.5-24.111 110.694 110.694 0 0 0 24.111-10.333l3.444 8.611a3033.236 3033.236 0 0 1-18.944 25.833 91.863 91.863 0 0 1-5.167 22.389l6.889 3.444a8016.762 8016.762 0 0 0-70.611 132.611 1055.34 1055.34 0 0 0-63.722 124Z"/>
  <path style="opacity:1" fill="#051318" d="M328.944 384.056v6.889c-.265 4.306-2.563 7.175-6.889 8.611a85.864 85.864 0 0 1-24.111 1.722c-3.11 17.735-7.705 17.735-13.778 0 1.295-6.486 4.74-11.653 10.333-15.5a345.684 345.684 0 0 0 27.556-5.167c3.155.148 5.453 1.295 6.889 3.444Z"/>
  <path style="opacity:1" fill="#86a2d0" d="M580.389 297.944c-11.122 9.899-23.753 17.935-37.889 24.111-3.985 11.312-4.56 22.795-1.722 34.444 14.467 13.296 19.633 29.371 15.5 48.222a2860.811 2860.811 0 0 0 24.111 105.056 834.372 834.372 0 0 0 13.778 20.667l-6.889 13.778a527.396 527.396 0 0 1 18.944 80.944c4.03 11.27 9.197 21.604 15.5 31h-27.556a39.942 39.942 0 0 0 1.722-24.111 5352.553 5352.553 0 0 1-18.944-82.667c-10.402-8.325-12.7-18.659-6.889-31a2254.561 2254.561 0 0 1-27.556-120.556h-10.333a1514.491 1514.491 0 0 0 3.444 139.5c-.031 4.836-1.753 8.852-5.167 12.056-2.297 31-2.297 62 0 93 5.101 3.345 7.974 7.936 8.611 13.778h-31c.637-5.842 3.51-10.433 8.611-13.778a675.76 675.76 0 0 0 0-96.444c-3.252-2.628-4.974-6.073-5.167-10.333a106.595 106.595 0 0 0 8.611-20.667c1.722-39.019 2.297-78.058 1.722-117.111-5.663-.737-10.829.413-15.5 3.444a5216.404 5216.404 0 0 1-60.278 111.944c3.503 3.613 4.078 7.633 1.722 12.056-9.3 5.973-16.189 14.012-20.667 24.111a1066.173 1066.173 0 0 1-46.5 87.833c4.688 5.456 6.985 11.773 6.889 18.944h-27.556a1055.34 1055.34 0 0 1 63.722-124 8016.762 8016.762 0 0 1 70.611-132.611l-6.889-3.444a91.863 91.863 0 0 0 5.167-22.389 3033.236 3033.236 0 0 0 18.944-25.833l-3.444-8.611a110.694 110.694 0 0 1-24.111 10.333c-.696-8.577 1.026-16.613 5.167-24.111a323.688 323.688 0 0 1 46.5-29.278c15.627-11.89 30.556-11.315 44.778 1.722Z"/>
  <path style="opacity:1" fill="#f3f4f4" d="M508.056 656.167H387.5c.096-7.171-2.201-13.488-6.889-18.944a1066.173 1066.173 0 0 0 46.5-87.833c4.478-10.099 11.367-18.138 20.667-24.111 2.356-4.423 1.781-8.442-1.722-12.056a5216.404 5216.404 0 0 0 60.278-111.944c4.671-3.031 9.837-4.182 15.5-3.444.575 39.053 0 78.092-1.722 117.111a106.595 106.595 0 0 1-8.611 20.667c.193 4.261 1.915 7.705 5.167 10.333a675.76 675.76 0 0 1 0 96.444c-5.101 3.345-7.974 7.936-8.611 13.778Z"/>
  <path style="opacity:1" fill="#f1bd13" d="M256.611 511.5c-14.966-1.161-28.744-5.756-41.333-13.778A16.988 16.988 0 0 1 217 487.389a876.838 876.838 0 0 1 67.167-63.722c12.279-.124 23.76 3.32 34.444 10.333 20.794 6.166 33.425-1.299 37.889-22.389 5.074-1.967 10.816-1.967 17.222 0-.63 41.447-20.725 59.816-60.278 55.111a176.659 176.659 0 0 1-22.389 43.056 173.794 173.794 0 0 1-34.444 1.722Z"/>
  <path style="opacity:1" fill="#90abd4" d="M170.5 576.944a350.221 350.221 0 0 0-37.889 44.778c-4.898-.861-8.342-3.73-10.333-8.611 5.521-9.231 8.394-18.989 8.611-29.278a688.021 688.021 0 0 0-39.611-24.111c-11.56-23.932-16.726-49.19-15.5-75.778 10.326 15.245 24.679 25.003 43.056 29.278l5.167 5.167c-2.652 28.923 10.554 42.701 39.611 41.333a40.093 40.093 0 0 1 6.889 17.222Z"/>
  <path style="opacity:1" fill="#4872b7" d="M215.278 497.722c12.589 8.022 26.367 12.617 41.333 13.778 11.356 1.343 21.69 4.788 31 10.333a829.87 829.87 0 0 0 10.333 63.722c-.964 16.086-4.409 31.586-10.333 46.5a64.549 64.549 0 0 1-17.222 13.778c-5.025.231-9.617-.916-13.778-3.444a338.53 338.53 0 0 0-1.722-48.222 78.406 78.406 0 0 0-13.778-17.222 531.567 531.567 0 0 1-91.278 55.111l-6.889 3.444-10.333-6.889v-6.889a350.221 350.221 0 0 1 37.889-44.778 86.642 86.642 0 0 0 15.5-13.778c9.81-21.903 19.568-43.72 29.278-65.444Z"/>
  <path style="opacity:1" fill="#b5c6e2" d="M287.611 521.833h58.556A231.894 231.894 0 0 1 341 566.611a281.328 281.328 0 0 0-12.056 41.333c.369 6.472-1.354 7.619-5.167 3.444a130.889 130.889 0 0 1-25.833 25.833c-4.436.823-7.881-.899-10.333-5.167 5.924-14.914 9.369-30.414 10.333-46.5a829.87 829.87 0 0 1-10.333-63.722Z"/>
  <path style="opacity:1" fill="#f2f3f4" d="M594.167 656.167h-55.111c-.637-5.842-3.51-10.433-8.611-13.778-2.297-31-2.297-62 0-93 3.413-3.203 5.136-7.22 5.167-12.056a1514.491 1514.491 0 0 1-3.444-139.5h10.333a2254.561 2254.561 0 0 0 27.556 120.556c-5.811 12.341-3.513 22.675 6.889 31a5358.952 5358.952 0 0 0 18.944 82.667c1.915 8.215 1.343 16.251-1.722 24.111Z"/>
  <path style="opacity:1" fill="#bbcae3" d="M91.278 559.722a688.021 688.021 0 0 1 39.611 24.111c-.217 10.289-3.09 20.047-8.611 29.278 1.991 4.881 5.435 7.75 10.333 8.611v6.889c-6.713-2.356-12.452-6.376-17.222-12.056-9.369-2.074-18.555-1.498-27.556 1.722-18.039-18.796-31.816-40.613-41.333-65.444 14.288-1.03 28.065 2.415 41.333 10.333 2.091-.427 3.238-1.574 3.444-3.444Z"/>
  <path style="opacity:1" fill="#afc1e0" d="M256.611 642.389a244.263 244.263 0 0 1-6.889-13.778c-4.657 4.808-10.402 7.106-17.222 6.889a866.38 866.38 0 0 1-27.556-10.333c-4.626 4.829-7.495 3.682-8.611-3.444a124.586 124.586 0 0 0-13.778 24.111c-12.2-2.318-23.109-6.913-32.722-13.778a531.567 531.567 0 0 0 91.278-55.111 78.406 78.406 0 0 1 13.778 17.222c1.722 16.034 2.294 32.106 1.722 48.222Z"/>
  <path style="opacity:1" fill="#d7e0ef" d="M132.611 628.611c-2.766 3.179-3.341 6.624-1.722 10.333 17.264 18.393 21.28 17.246 12.056-3.444l6.889-3.444c9.613 6.865 20.522 11.46 32.722 13.778a124.586 124.586 0 0 1 13.778-24.111c1.116 7.127 3.985 8.274 8.611 3.444a866.38 866.38 0 0 0 27.556 10.333c6.82.217 12.565-2.08 17.222-6.889a244.263 244.263 0 0 0 6.889 13.778v13.778H49.945c-4.099-22.286 5.087-30.325 27.556-24.111a1704.373 1704.373 0 0 0 10.333-13.778c9-3.221 18.187-3.796 27.556-1.722 4.771 5.68 10.509 9.7 17.222 12.056Z"/>
  <path style="opacity:1" fill="#d6deec" d="M349.611 656.167c-21.845.572-43.658 0-65.444-1.722a176.49 176.49 0 0 0-13.778-8.611 64.549 64.549 0 0 0 17.222-13.778c2.452 4.268 5.897 5.99 10.333 5.167a130.889 130.889 0 0 0 25.833-25.833c3.813 4.175 5.535 3.028 5.167-3.444 2.125.382 3.847 1.529 5.167 3.444-.906-4.998-.331-9.589 1.722-13.778 3.279 5.322 4.426 11.064 3.444 17.222 4.047-.754 7.492.393 10.333 3.444-5.377 2.917-10.543 1.77-15.5-3.444-5.952 5.835-4.23 9.855 5.167 12.056-6.245-.158-11.987.413-17.222 1.722a1719.012 1719.012 0 0 1 27.556 27.556Z"/>
  <path style="opacity:1" fill="#141c1f" d="m132.611 628.611 10.333 6.889c9.224 20.691 5.208 21.838-12.056 3.444-1.619-3.71-1.044-7.154 1.722-10.333Z"/>
  <path style="opacity:1" fill="#010304" d="M256.611 642.389c4.161 2.528 8.752 3.675 13.778 3.444a176.49 176.49 0 0 1 13.778 8.611c21.786 1.722 43.6 2.294 65.444 1.722h272.111c-142.4 4.423-332.992 4.423-571.778 0h206.667v-13.778Z"/>
</svg>
