<?xml version="1.0" standalone="no"?>
<!DOCTYPE svg PUBLIC "-//W3C//DTD SVG 20010904//EN"
 "http://www.w3.org/TR/2001/REC-SVG-20010904/DTD/svg10.dtd">
<svg version="1.0" xmlns="http://www.w3.org/2000/svg"
 width="225.000000pt" height="225.000000pt" viewBox="0 0 225.000000 225.000000"
 preserveAspectRatio="xMidYMid meet">

<g transform="translate(0.000000,225.000000) scale(0.100000,-0.100000)"
fill="#000000" stroke="none">
<path d="M1943 1727 c-34 -17 -41 -25 -37 -41 5 -21 -27 -41 -584 -368 -54
-31 -96 -60 -95 -66 3 -11 -204 -124 -232 -127 -11 0 -25 2 -31 7 -6 4 -29 7
-52 5 -63 -4 -103 -52 -70 -85 18 -18 28 -15 28 8 0 17 7 20 40 20 25 0 42 6
48 16 7 13 13 10 31 -21 22 -38 44 -42 49 -9 6 39 11 45 28 36 12 -7 38 3 96
35 55 30 86 42 100 37 31 -10 148 55 148 81 0 36 28 62 114 109 91 50 110 54
144 31 20 -15 30 -12 169 59 131 66 149 73 160 60 11 -15 16 -14 50 7 21 12
40 24 41 25 2 1 -20 47 -50 102 l-53 99 -42 -20z m-622 -440 c-10 -9 -11 -8
-5 6 3 10 9 15 12 12 3 -3 0 -11 -7 -18z m-20 -14 c13 -16 12 -17 -3 -4 -17
13 -22 21 -14 21 2 0 10 -8 17 -17z"/>
<path d="M582 689 c-28 -59 -55 -110 -61 -114 -8 -4 -2 -17 15 -38 18 -22 22
-33 13 -36 -7 -2 -23 9 -37 24 l-24 28 -43 -49 c-24 -27 -42 -51 -39 -53 2 -2
-3 -16 -12 -30 -16 -24 -16 -25 11 -48 31 -27 42 -25 25 6 -9 17 -8 25 5 37 8
8 15 12 15 9 0 -10 170 84 214 118 l39 31 29 -35 c19 -22 27 -41 24 -54 -3
-11 -6 -48 -6 -82 l0 -63 -332 -3 c-183 -1 117 -2 667 -2 550 0 718 1 373 2
-351 2 -628 7 -628 12 0 5 -10 12 -22 15 -22 6 -22 7 -5 17 29 17 67 108 67
160 0 26 -7 63 -15 82 -8 20 -15 51 -15 69 0 48 -8 54 -73 61 -32 3 -76 14
-97 25 l-39 19 -49 -108z m159 34 c12 -16 12 -17 -2 -6 -9 7 -20 9 -24 5 -5
-4 -5 -1 -1 6 9 16 11 15 27 -5z m-51 -38 c19 -22 8 -25 -12 -3 -10 10 -14 18
-9 18 5 0 14 -7 21 -15z m-72 -97 c14 -30 1 -72 -26 -83 -25 -9 -38 12 -20 32
28 33 29 42 8 63 l-22 22 24 -4 c13 -2 28 -14 36 -30z m-61 -40 c-3 -7 -5 -2
-5 12 0 14 2 19 5 13 2 -7 2 -19 0 -25z m-117 -102 c0 -2 -8 -10 -17 -17 -16
-13 -17 -12 -4 4 13 16 21 21 21 13z"/>
</g>
</svg>
