<?xml version="1.0" encoding="UTF-8"?>
<!DOCTYPE svg PUBLIC "-//W3C//DTD SVG 1.1//EN" "http://www.w3.org/Graphics/SVG/1.1/DTD/svg11.dtd">
<svg xmlns="http://www.w3.org/2000/svg" version="1.1" width="225px" height="225px" style="shape-rendering:geometricPrecision; text-rendering:geometricPrecision; image-rendering:optimizeQuality; fill-rule:evenodd; clip-rule:evenodd" xmlns:xlink="http://www.w3.org/1999/xlink">
<g><path style="opacity:1" fill="#f5f5f5" d="M -0.5,-0.5 C 74.5,-0.5 149.5,-0.5 224.5,-0.5C 224.5,74.5 224.5,149.5 224.5,224.5C 149.5,224.5 74.5,224.5 -0.5,224.5C -0.5,149.5 -0.5,74.5 -0.5,-0.5 Z"/></g>
<g><path style="opacity:1" fill="#d8e1f1" d="M 82.5,66.5 C 87.1578,65.5142 90.8245,66.8476 93.5,70.5C 98.468,72.4709 102.135,75.8042 104.5,80.5C 90.8455,81.6661 77.1788,81.8327 63.5,81C 64.1667,80 64.8333,79 65.5,78C 70.0191,75.3356 74.6858,72.8356 79.5,70.5C 80.5244,69.1482 81.5244,67.8149 82.5,66.5 Z"/></g>
<g><path style="opacity:1" fill="#4470b6" d="M 168.5,86.5 C 164.371,82.7151 160.037,82.5484 155.5,86C 150.747,88.4583 146.247,91.2916 142,94.5C 140.798,96.6775 140.298,99.0108 140.5,101.5C 135.948,103.693 131.448,106.026 127,108.5C 126.311,107.643 125.478,106.977 124.5,106.5C 118.675,109.245 113.008,112.245 107.5,115.5C 106.109,114.355 104.776,114.355 103.5,115.5C 104.363,116.726 104.363,118.06 103.5,119.5C 102.142,120.626 100.808,120.626 99.5,119.5C 98.6389,117.089 97.3056,115.089 95.5,113.5C 95.5,112.833 95.5,112.167 95.5,111.5C 97.8205,110.375 100.154,110.208 102.5,111C 130.799,92.5761 159.799,75.0761 189.5,58.5C 189.88,56.9793 190.046,55.3126 190,53.5C 192.421,52.0394 194.921,50.7061 197.5,49.5C 202.128,56.0885 205.628,63.0885 208,70.5C 205.579,71.9606 203.079,73.2939 200.5,74.5C 199.667,73.5 198.833,72.5 198,71.5C 188.191,76.654 178.358,81.654 168.5,86.5 Z"/></g>
<g><path style="opacity:1" fill="#f4f3f4" d="M 104.5,190.5 C 103.5,190.5 102.5,190.5 101.5,190.5C 98.9093,187.849 96.2426,185.182 93.5,182.5C 95.0207,182.12 96.6874,181.954 98.5,182C 95.7723,181.361 95.2723,180.194 97,178.5C 98.439,180.014 99.939,180.347 101.5,179.5C 100.675,178.614 99.675,178.281 98.5,178.5C 98.7852,176.712 98.4519,175.045 97.5,173.5C 96.9041,174.716 96.7374,176.049 97,177.5C 96.6174,176.944 96.1174,176.611 95.5,176.5C 96.3495,172.447 97.5162,168.447 99,164.5C 99.9225,160.21 100.423,155.877 100.5,151.5C 94.8333,151.5 89.1667,151.5 83.5,151.5C 80.7967,149.89 77.7967,148.89 74.5,148.5C 77.8499,148.665 81.1832,148.498 84.5,148C 87.2305,144.154 89.3972,139.987 91,135.5C 102.483,136.866 108.317,131.533 108.5,119.5C 106.64,118.929 104.973,118.929 103.5,119.5C 104.363,118.06 104.363,116.726 103.5,115.5C 104.776,114.355 106.109,114.355 107.5,115.5C 113.008,112.245 118.675,109.245 124.5,106.5C 125.478,106.977 126.311,107.643 127,108.5C 131.448,106.026 135.948,103.693 140.5,101.5C 142.928,100.788 145.261,99.7878 147.5,98.5C 147.833,99.3333 148.167,100.167 148.5,101C 146.711,103.467 144.878,105.967 143,108.5C 142.764,110.764 142.264,112.931 141.5,115C 142.167,115.333 142.833,115.667 143.5,116C 136.428,128.992 129.594,141.826 123,154.5C 115.998,166.174 109.831,178.174 104.5,190.5 Z"/></g>
<g><path style="opacity:1" fill="#051318" d="M 95.5,111.5 C 95.5,112.167 95.5,112.833 95.5,113.5C 95.4226,114.75 94.756,115.583 93.5,116C 91.1902,116.497 88.8568,116.663 86.5,116.5C 85.5969,121.649 84.2635,121.649 82.5,116.5C 82.8757,114.617 83.8757,113.117 85.5,112C 88.1879,111.608 90.8546,111.108 93.5,110.5C 94.4164,110.543 95.0831,110.876 95.5,111.5 Z"/></g>
<g><path style="opacity:1" fill="#86a2d0" d="M 168.5,86.5 C 165.271,89.3741 161.604,91.7074 157.5,93.5C 156.343,96.7844 156.176,100.118 157,103.5C 161.2,107.36 162.7,112.027 161.5,117.5C 163.643,127.715 165.976,137.882 168.5,148C 169.786,149.994 171.12,151.994 172.5,154C 171.833,155.333 171.167,156.667 170.5,158C 172.952,165.689 174.785,173.523 176,181.5C 177.17,184.772 178.67,187.772 180.5,190.5C 177.833,190.5 175.167,190.5 172.5,190.5C 173.39,188.218 173.556,185.885 173,183.5C 171.103,175.514 169.27,167.514 167.5,159.5C 164.48,157.083 163.813,154.083 165.5,150.5C 162.511,138.898 159.845,127.231 157.5,115.5C 156.5,115.5 155.5,115.5 154.5,115.5C 154.211,129.026 154.545,142.526 155.5,156C 155.491,157.404 154.991,158.57 154,159.5C 153.333,168.5 153.333,177.5 154,186.5C 155.481,187.471 156.315,188.804 156.5,190.5C 153.5,190.5 150.5,190.5 147.5,190.5C 147.685,188.804 148.519,187.471 150,186.5C 150.667,177.167 150.667,167.833 150,158.5C 149.056,157.737 148.556,156.737 148.5,155.5C 149.531,153.618 150.365,151.618 151,149.5C 151.5,138.172 151.667,126.838 151.5,115.5C 149.856,115.286 148.356,115.62 147,116.5C 141.294,127.413 135.461,138.246 129.5,149C 130.517,150.049 130.684,151.216 130,152.5C 127.3,154.234 125.3,156.568 124,159.5C 119.882,168.237 115.382,176.737 110.5,185C 111.861,186.584 112.528,188.418 112.5,190.5C 109.833,190.5 107.167,190.5 104.5,190.5C 109.831,178.174 115.998,166.174 123,154.5C 129.594,141.826 136.428,128.992 143.5,116C 142.833,115.667 142.167,115.333 141.5,115C 142.264,112.931 142.764,110.764 143,108.5C 144.878,105.967 146.711,103.467 148.5,101C 148.167,100.167 147.833,99.3333 147.5,98.5C 145.261,99.7878 142.928,100.788 140.5,101.5C 140.298,99.0108 140.798,96.6775 142,94.5C 146.247,91.2916 150.747,88.4583 155.5,86C 160.037,82.5484 164.371,82.7151 168.5,86.5 Z"/></g>
<g><path style="opacity:1" fill="#f3f4f4" d="M 147.5,190.5 C 135.833,190.5 124.167,190.5 112.5,190.5C 112.528,188.418 111.861,186.584 110.5,185C 115.382,176.737 119.882,168.237 124,159.5C 125.3,156.568 127.3,154.234 130,152.5C 130.684,151.216 130.517,150.049 129.5,149C 135.461,138.246 141.294,127.413 147,116.5C 148.356,115.62 149.856,115.286 151.5,115.5C 151.667,126.838 151.5,138.172 151,149.5C 150.365,151.618 149.531,153.618 148.5,155.5C 148.556,156.737 149.056,157.737 150,158.5C 150.667,167.833 150.667,177.167 150,186.5C 148.519,187.471 147.685,188.804 147.5,190.5 Z"/></g>
<g><path style="opacity:1" fill="#f1bd13" d="M 74.5,148.5 C 70.1549,148.163 66.1549,146.829 62.5,144.5C 62.3505,143.448 62.5172,142.448 63,141.5C 69.1975,134.968 75.6975,128.801 82.5,123C 86.0648,122.964 89.3981,123.964 92.5,126C 98.5373,127.79 102.204,125.623 103.5,119.5C 104.973,118.929 106.64,118.929 108.5,119.5C 108.317,131.533 102.483,136.866 91,135.5C 89.3972,139.987 87.2305,144.154 84.5,148C 81.1832,148.498 77.8499,148.665 74.5,148.5 Z"/></g>
<g><path style="opacity:1" fill="#90abd4" d="M 49.5,167.5 C 45.4579,171.54 41.7912,175.873 38.5,180.5C 37.0779,180.25 36.0779,179.417 35.5,178C 37.1035,175.32 37.9368,172.487 38,169.5C 34.2547,167.043 30.4214,164.71 26.5,162.5C 23.1437,155.552 21.6437,148.219 22,140.5C 24.9984,144.926 29.165,147.759 34.5,149C 35,149.5 35.5,150 36,150.5C 35.2306,158.897 39.0639,162.897 47.5,162.5C 48.562,164.022 49.2287,165.688 49.5,167.5 Z"/></g>
<g><path style="opacity:1" fill="#4872b7" d="M 62.5,144.5 C 66.1549,146.829 70.1549,148.163 74.5,148.5C 77.7967,148.89 80.7967,149.89 83.5,151.5C 84.2604,157.708 85.2604,163.874 86.5,170C 86.2199,174.67 85.2199,179.17 83.5,183.5C 82.0451,185.134 80.3784,186.468 78.5,187.5C 77.0413,187.567 75.7079,187.234 74.5,186.5C 74.6658,181.821 74.4992,177.155 74,172.5C 72.907,170.651 71.5737,168.984 70,167.5C 61.6518,173.752 52.8185,179.086 43.5,183.5C 42.8333,183.833 42.1667,184.167 41.5,184.5C 40.5,183.833 39.5,183.167 38.5,182.5C 38.5,181.833 38.5,181.167 38.5,180.5C 41.7912,175.873 45.4579,171.54 49.5,167.5C 51.1288,166.375 52.6288,165.041 54,163.5C 56.8478,157.141 59.6811,150.807 62.5,144.5 Z"/></g>
<g><path style="opacity:1" fill="#b5c6e2" d="M 83.5,151.5 C 89.1667,151.5 94.8333,151.5 100.5,151.5C 100.423,155.877 99.9225,160.21 99,164.5C 97.5162,168.447 96.3495,172.447 95.5,176.5C 95.6068,178.379 95.1068,178.712 94,177.5C 91.8762,180.325 89.3762,182.825 86.5,185C 85.212,185.239 84.212,184.739 83.5,183.5C 85.2199,179.17 86.2199,174.67 86.5,170C 85.2604,163.874 84.2604,157.708 83.5,151.5 Z"/></g>
<g><path style="opacity:1" fill="#f2f3f4" d="M 172.5,190.5 C 167.167,190.5 161.833,190.5 156.5,190.5C 156.315,188.804 155.481,187.471 154,186.5C 153.333,177.5 153.333,168.5 154,159.5C 154.991,158.57 155.491,157.404 155.5,156C 154.545,142.526 154.211,129.026 154.5,115.5C 155.5,115.5 156.5,115.5 157.5,115.5C 159.845,127.231 162.511,138.898 165.5,150.5C 163.813,154.083 164.48,157.083 167.5,159.5C 169.27,167.514 171.103,175.514 173,183.5C 173.556,185.885 173.39,188.218 172.5,190.5 Z"/></g>
<g><path style="opacity:1" fill="#bbcae3" d="M 26.5,162.5 C 30.4214,164.71 34.2547,167.043 38,169.5C 37.9368,172.487 37.1035,175.32 35.5,178C 36.0779,179.417 37.0779,180.25 38.5,180.5C 38.5,181.167 38.5,181.833 38.5,182.5C 36.5512,181.816 34.8845,180.649 33.5,179C 30.7795,178.398 28.1128,178.565 25.5,179.5C 20.2626,174.043 16.2626,167.709 13.5,160.5C 17.6482,160.201 21.6482,161.201 25.5,163.5C 26.1067,163.376 26.44,163.043 26.5,162.5 Z"/></g>
<g><path style="opacity:1" fill="#afc1e0" d="M 74.5,186.5 C 73.8386,185.282 73.1719,183.949 72.5,182.5C 71.1476,183.896 69.4809,184.563 67.5,184.5C 64.8662,183.564 62.1995,182.564 59.5,181.5C 58.1575,182.902 57.3242,182.569 57,180.5C 55.4138,182.67 54.0804,185.004 53,187.5C 49.4578,186.827 46.2912,185.493 43.5,183.5C 52.8185,179.086 61.6518,173.752 70,167.5C 71.5737,168.984 72.907,170.651 74,172.5C 74.4992,177.155 74.6658,181.821 74.5,186.5 Z"/></g>
<g><path style="opacity:1" fill="#d7e0ef" d="M 38.5,182.5 C 37.6971,183.423 37.5304,184.423 38,185.5C 43.0117,190.84 44.1783,190.507 41.5,184.5C 42.1667,184.167 42.8333,183.833 43.5,183.5C 46.2912,185.493 49.4578,186.827 53,187.5C 54.0804,185.004 55.4138,182.67 57,180.5C 57.3242,182.569 58.1575,182.902 59.5,181.5C 62.1995,182.564 64.8662,183.564 67.5,184.5C 69.4809,184.563 71.1476,183.896 72.5,182.5C 73.1719,183.949 73.8386,185.282 74.5,186.5C 74.5,187.833 74.5,189.167 74.5,190.5C 54.5,190.5 34.5,190.5 14.5,190.5C 13.31,184.03 15.9766,181.696 22.5,183.5C 23.5244,182.148 24.5244,180.815 25.5,179.5C 28.1128,178.565 30.7795,178.398 33.5,179C 34.8845,180.649 36.5512,181.816 38.5,182.5 Z"/></g>
<g><path style="opacity:1" fill="#d6deec" d="M 101.5,190.5 C 95.1579,190.666 88.8246,190.5 82.5,190C 81.1416,189.066 79.8083,188.232 78.5,187.5C 80.3784,186.468 82.0451,185.134 83.5,183.5C 84.212,184.739 85.212,185.239 86.5,185C 89.3762,182.825 91.8762,180.325 94,177.5C 95.1068,178.712 95.6068,178.379 95.5,176.5C 96.1174,176.611 96.6174,176.944 97,177.5C 96.7374,176.049 96.9041,174.716 97.5,173.5C 98.4519,175.045 98.7852,176.712 98.5,178.5C 99.675,178.281 100.675,178.614 101.5,179.5C 99.939,180.347 98.439,180.014 97,178.5C 95.2723,180.194 95.7723,181.361 98.5,182C 96.6874,181.954 95.0207,182.12 93.5,182.5C 96.2426,185.182 98.9093,187.849 101.5,190.5 Z"/></g>
<g><path style="opacity:1" fill="#141c1f" d="M 38.5,182.5 C 39.5,183.167 40.5,183.833 41.5,184.5C 44.1783,190.507 43.0117,190.84 38,185.5C 37.5304,184.423 37.6971,183.423 38.5,182.5 Z"/></g>
<g><path style="opacity:1" fill="#010304" d="M 74.5,186.5 C 75.7079,187.234 77.0413,187.567 78.5,187.5C 79.8083,188.232 81.1416,189.066 82.5,190C 88.8246,190.5 95.1579,190.666 101.5,190.5C 102.5,190.5 103.5,190.5 104.5,190.5C 107.167,190.5 109.833,190.5 112.5,190.5C 124.167,190.5 135.833,190.5 147.5,190.5C 150.5,190.5 153.5,190.5 156.5,190.5C 161.833,190.5 167.167,190.5 172.5,190.5C 175.167,190.5 177.833,190.5 180.5,190.5C 139.158,191.784 83.8245,191.784 14.5,190.5C 34.5,190.5 54.5,190.5 74.5,190.5C 74.5,189.167 74.5,187.833 74.5,186.5 Z"/></g>
</svg>
